<?xml version="1.0" encoding="UTF-8" standalone="no"?>
<!-- Created with Inkscape (http://www.inkscape.org/) -->

<svg
   width="30.71323mm"
   height="40.247311mm"
   viewBox="0 0 30.71323 40.24731"
   version="1.1"
   id="svg1"
   xml:space="preserve"
   xmlns="http://www.w3.org/2000/svg"
   xmlns:svg="http://www.w3.org/2000/svg"><defs
     id="defs1" /><g
     id="ac-power-supply-id"
     transform="translate(-135.50453,-83.155354)"><path
       style="display:inline;fill:none;stroke:#000000;stroke-width:0.7;stroke-linecap:square;stroke-linejoin:round;stroke-dasharray:none"
       id="path14"
       d="m 141.06596,112.93176 a 11.540371,11.665132 0 0 1 -3.35497,-16.099197 11.540371,11.665132 0 0 1 15.90871,-3.477907 11.540371,11.665132 0 0 1 3.52635,16.061734 11.540371,11.665132 0 0 1 -15.87073,3.65093" /><g
       id="g5"
       style="display:inline"><path
         style="display:inline;fill:none;stroke:#000000;stroke-width:0.7;stroke-linecap:square;stroke-linejoin:round;stroke-dasharray:none"
         d="m 146.01481,109 h 2.78634"
         id="path17" /><g
         id="g19"
         transform="translate(108.07422,-0.49877146)"
         style="display:inline"><path
           style="fill:none;stroke:#000000;stroke-width:0.7;stroke-linecap:square;stroke-linejoin:round;stroke-dasharray:none"
           d="m 39.299636,95.483562 v 3.11902"
           id="path18" /><path
           style="fill:none;stroke:#000000;stroke-width:0.7;stroke-linecap:square;stroke-linejoin:round;stroke-dasharray:none"
           d="m 37.844095,97.063866 h 2.931957"
           id="path19" /></g><path
         style="fill:none;stroke:#000000;stroke-width:0.7;stroke-linecap:square;stroke-linejoin:round;stroke-dasharray:none"
         d="m 141.22917,103.5293 c 2.63971,-3.03469 3.59256,-3.097 6.20657,0 2.62892,3.11467 3.66094,3.04592 5.58741,0"
         id="path21" /></g><g
       id="g4"
       style="display:inline"><path
         style="display:inline;fill:none;stroke:#000000;stroke-width:0.7;stroke-linecap:square;stroke-linejoin:round;stroke-dasharray:none"
         d="M 147.40483,84.878898 V 91.49122"
         id="path22" /><path
         style="fill:none;stroke:#000000;stroke-width:0.7;stroke-linecap:square;stroke-linejoin:round;stroke-dasharray:none"
         d="m 147.42562,119.95749 v -5.01125"
         id="path23" /><path
         style="fill:none;stroke:#000000;stroke-width:0.7;stroke-linecap:square;stroke-linejoin:round;stroke-dasharray:none"
         d="m 162.69823,84.886374 h -15.138"
         id="path1" /></g><g
       id="g3"
       style="display:inline"><path
         style="fill:none;fill-opacity:1;stroke:#000000;stroke-width:0.7;stroke-linecap:square;stroke-linejoin:round;stroke-dasharray:none"
         id="pos-probe-connection-id"
         d="m 163.58354,86.214364 a 1.4762102,1.4762102 0 0 1 -0.42916,-2.037337 1.4762102,1.4762102 0 0 1 2.03499,-0.440125 1.4762102,1.4762102 0 0 1 0.45108,2.032595 1.4762102,1.4762102 0 0 1 -2.03013,0.462022" /><path
         style="fill:none;fill-opacity:1;stroke:#000000;stroke-width:0.7;stroke-linecap:square;stroke-linejoin:round;stroke-dasharray:none"
         id="neg-probe-connection-id"
         d="m 146.59588,122.81242 a 1.4762102,1.4762102 0 0 1 -0.42916,-2.03734 1.4762102,1.4762102 0 0 1 2.035,-0.44013 1.4762102,1.4762102 0 0 1 0.45108,2.0326 1.4762102,1.4762102 0 0 1 -2.03014,0.46202" /></g></g></svg>
